<svg width="167" height="26" viewBox="0 0 167 26" fill="none" xmlns="http://www.w3.org/2000/svg">
<g id="social-icon">
<g id="fb">
<path id="Vector" d="M22.1 1.2998H3.89999C2.46999 1.2998 1.29999 2.4698 1.29999 3.8998V22.0998C1.29999 23.5311 2.46999 24.6998 3.89999 24.6998H13V15.5998H10.4V12.3823H13V9.7173C13 6.9041 14.5756 4.9281 17.8958 4.9281L20.2397 4.9307V8.3172H18.6836C17.3914 8.3172 16.9 9.287 16.9 10.1866V12.3836H20.2384L19.5 15.5998H16.9V24.6998H22.1C23.53 24.6998 24.7 23.5311 24.7 22.0998V3.8998C24.7 2.4698 23.53 1.2998 22.1 1.2998Z" fill="#2E303F"/>
</g>
<g id="insta">
<path id="Vector_2" d="M61.1136 2.1665C62.3324 2.16975 62.951 2.17625 63.4851 2.19142L63.6952 2.199C63.9379 2.20767 64.1773 2.2185 64.4666 2.2315C65.6192 2.28567 66.4057 2.46767 67.0958 2.73525C67.8108 3.01042 68.4131 3.38309 69.0155 3.98434C69.5663 4.52589 69.9926 5.18098 70.2646 5.904C70.5321 6.59409 70.7141 7.38059 70.7683 8.53434C70.7813 8.8225 70.7921 9.06192 70.8008 9.30567L70.8073 9.51584C70.8236 10.0488 70.8301 10.6674 70.8322 11.8862L70.8333 12.6943V14.1135C70.836 14.9037 70.8277 15.6939 70.8084 16.4838L70.8019 16.694C70.7932 16.9378 70.7824 17.1772 70.7694 17.4653C70.7152 18.6191 70.5311 19.4045 70.2646 20.0957C69.9934 20.8191 69.567 21.4743 69.0155 22.0153C68.4738 22.566 67.8187 22.9922 67.0958 23.2644C66.4057 23.532 65.6192 23.714 64.4666 23.7682C64.2095 23.7803 63.9524 23.7911 63.6952 23.8007L63.4851 23.8072C62.951 23.8223 62.3324 23.8299 61.1136 23.8321L60.3055 23.8332H58.8874C58.0968 23.8359 57.3063 23.8276 56.516 23.8083L56.3058 23.8018C56.0486 23.792 55.7915 23.7808 55.5345 23.7682C54.3818 23.714 53.5953 23.532 52.9041 23.2644C52.1812 22.9929 51.5264 22.5666 50.9856 22.0153C50.4342 21.474 50.0076 20.8189 49.7354 20.0957C49.4678 19.4056 49.2858 18.6191 49.2316 17.4653C49.2196 17.2083 49.2087 16.9512 49.1991 16.694L49.1937 16.4838C49.1738 15.6939 49.1647 14.9037 49.1666 14.1135V11.8862C49.1636 11.096 49.1716 10.3058 49.1905 9.51584L49.1981 9.30567C49.2067 9.06192 49.2176 8.8225 49.2306 8.53434C49.2847 7.38059 49.4667 6.59517 49.7343 5.904C50.0063 5.18023 50.4338 4.52495 50.9866 3.98434C51.5273 3.43343 52.1817 3.00716 52.9041 2.73525C53.5953 2.46767 54.3807 2.28567 55.5345 2.2315C55.8226 2.2185 56.0631 2.20767 56.3058 2.199L56.516 2.1925C57.3059 2.17326 58.0961 2.16495 58.8863 2.16759L61.1136 2.1665ZM60 7.58317C58.5634 7.58317 57.1856 8.15385 56.1698 9.16968C55.154 10.1855 54.5833 11.5632 54.5833 12.9998C54.5833 14.4364 55.154 15.8142 56.1698 16.83C57.1856 17.8458 58.5634 18.4165 60 18.4165C61.4366 18.4165 62.8143 17.8458 63.8301 16.83C64.846 15.8142 65.4166 14.4364 65.4166 12.9998C65.4166 11.5632 64.846 10.1855 63.8301 9.16968C62.8143 8.15385 61.4366 7.58317 60 7.58317ZM60 9.74984C60.4268 9.74977 60.8494 9.83376 61.2437 9.99702C61.6381 10.1603 61.9964 10.3996 62.2982 10.7014C62.6001 11.0031 62.8395 11.3613 63.0029 11.7556C63.1663 12.1499 63.2504 12.5725 63.2505 12.9993C63.2506 13.4261 63.1666 13.8487 63.0033 14.2431C62.8401 14.6374 62.6007 14.9957 62.299 15.2976C61.9973 15.5994 61.639 15.8388 61.2447 16.0022C60.8505 16.1656 60.4279 16.2498 60.0011 16.2498C59.1391 16.2498 58.3125 15.9074 57.703 15.2979C57.0935 14.6884 56.7511 13.8618 56.7511 12.9998C56.7511 12.1379 57.0935 11.3112 57.703 10.7017C58.3125 10.0922 59.1391 9.74984 60.0011 9.74984M65.6886 5.95817C65.3294 5.95817 64.985 6.10084 64.731 6.3548C64.4771 6.60875 64.3344 6.95319 64.3344 7.31234C64.3344 7.67149 64.4771 8.01592 64.731 8.26988C64.985 8.52383 65.3294 8.6665 65.6886 8.6665C66.0477 8.6665 66.3921 8.52383 66.6461 8.26988C66.9001 8.01592 67.0427 7.67149 67.0427 7.31234C67.0427 6.95319 66.9001 6.60875 66.6461 6.3548C66.3921 6.10084 66.0477 5.95817 65.6886 5.95817Z" fill="#2E303F"/>
</g>
<g id="twitter">
<path id="Vector_3" d="M112.722 2.4375H116.306L108.476 11.3858L117.687 23.5625H110.474L104.826 16.1774L98.3625 23.5625H94.7766L103.151 13.9913L94.3162 2.4375H101.71L106.816 9.18775L112.722 2.4375ZM111.464 21.4175H113.45L100.632 4.46983H98.5011L111.464 21.4175Z" fill="#2E303F"/>
</g>
<g id="yt" clip-path="url(#clip0_97_6082)">
<path id="Vector_4" d="M154.083 3.24854H154.227C155.563 3.25341 162.331 3.30216 164.156 3.79291C164.708 3.94268 165.211 4.23462 165.614 4.63955C166.018 5.04448 166.308 5.54821 166.456 6.10041C166.62 6.71791 166.735 7.53529 166.813 8.37866L166.829 8.54766L166.865 8.97016L166.878 9.13916C166.984 10.6244 166.997 12.0154 166.998 12.3193V12.4412C166.997 12.7564 166.982 14.2417 166.865 15.7887L166.852 15.9593L166.837 16.1283C166.756 17.0578 166.636 17.9808 166.456 18.66C166.308 19.2125 166.018 19.7164 165.615 20.1214C165.211 20.5264 164.708 20.8182 164.156 20.9675C162.271 21.4745 155.107 21.5103 154.114 21.5119H153.883C153.381 21.5119 151.304 21.5022 149.127 21.4274L148.85 21.4177L148.709 21.4112L148.431 21.3998L148.153 21.3884C146.349 21.3088 144.632 21.1804 143.84 20.9659C143.289 20.8167 142.786 20.5252 142.382 20.1205C141.979 19.7158 141.689 19.2122 141.541 18.66C141.361 17.9824 141.24 17.0578 141.159 16.1283L141.146 15.9577L141.133 15.7887C141.053 14.6876 141.009 13.5841 141 12.4802V12.2803C141.003 11.9309 141.016 10.7235 141.104 9.39104L141.115 9.22366L141.12 9.13916L141.133 8.97016L141.169 8.54766L141.185 8.37866C141.263 7.53529 141.379 6.71629 141.543 6.10041C141.69 5.54799 141.98 5.04402 142.384 4.63902C142.787 4.23402 143.29 3.94224 143.842 3.79291C144.633 3.58166 146.351 3.45166 148.155 3.37041L148.431 3.35904L148.711 3.34929L148.85 3.34441L149.128 3.33304C150.675 3.28327 152.222 3.25564 153.769 3.25016L154.083 3.24854ZM151.4 8.46479V16.294L158.155 12.381L151.4 8.46479Z" fill="#2E303F"/>
</g>
</g>
<defs>
<clipPath id="clip0_97_6082">
<rect width="26" height="26" fill="white" transform="translate(141)"/>
</clipPath>
</defs>
</svg>
